HIERARCHY
ROOT Hips
{
	OFFSET 0.000000 0.000000 0.000000
	CHANNELS 6 Xposition Yposition Zposition Xrotation Yrotation Zrotation
	JOINT LeftUpLeg_virtual
	{
		OFFSET 0.000000 0.000000 0.000000
		CHANNELS 3 Xrotation Yrotation Zrotation
		JOINT LeftUpLeg
		{
			OFFSET 15.427100 -6.655098 0.678600
			CHANNELS 3 Xrotation Yrotation Zrotation
			JOINT LeftLeg
			{
				OFFSET 4.081073 -39.591068 13.024000
				CHANNELS 3 Xrotation Yrotation Zrotation
				JOINT LeftFoot
				{
					OFFSET -4.081074 -37.707932 -15.979700
					CHANNELS 3 Xrotation Yrotation Zrotation
					JOINT LeftToeBase
					{
						OFFSET 5.346399 -15.068900 20.645000
						CHANNELS 3 Xrotation Yrotation Zrotation
						JOINT LeftToe_End
						{
							OFFSET 2.754700 0.931300 11.300900
							CHANNELS 3 Xrotation Yrotation Zrotation
							End Site
							{
								OFFSET 0 0 0
							}
						}
					}
				}
			}
		}
	}
	JOINT RightUpLeg_virtual
	{
		OFFSET 0.000000 0.000000 0.000000
		CHANNELS 3 Xrotation Yrotation Zrotation
		JOINT RightUpLeg
		{
			OFFSET -15.569500 -6.655098 0.678600
			CHANNELS 3 Xrotation Yrotation Zrotation
			JOINT RightLeg
			{
				OFFSET -4.081825 -39.591045 13.023800
				CHANNELS 3 Xrotation Yrotation Zrotation
				JOINT RightFoot
				{
					OFFSET 4.081824 -37.707954 -15.979600
					CHANNELS 3 Xrotation Yrotation Zrotation
					JOINT RightToeBase
					{
						OFFSET -5.346400 -15.068900 20.645000
						CHANNELS 3 Xrotation Yrotation Zrotation
						JOINT RightToe_End
						{
							OFFSET -2.754700 0.931300 11.300900
							CHANNELS 3 Xrotation Yrotation Zrotation
							End Site
							{
								OFFSET 0 0 0
							}
						}
					}
				}
			}
		}
	}
	JOINT Spine_virtual
	{
		OFFSET 0.000000 0.000000 0.000000
		CHANNELS 3 Xrotation Yrotation Zrotation
		JOINT Spine
		{
			OFFSET -0.279200 12.230698 -2.892100
			CHANNELS 3 Xrotation Yrotation Zrotation
			JOINT Spine1
			{
				OFFSET -0.232667 10.192268 -1.242267
				CHANNELS 3 Xrotation Yrotation Zrotation
				JOINT Spine1_split
				{
					OFFSET -0.232667 10.192268 -1.242267
					CHANNELS 3 Xrotation Yrotation Zrotation
					JOINT Spine2
					{
						OFFSET -0.232667 10.192268 -1.242267
						CHANNELS 3 Xrotation Yrotation Zrotation
						JOINT Neck_virtual
						{
							OFFSET 0.000000 0.000000 0.000000
							CHANNELS 3 Xrotation Yrotation Zrotation
							JOINT Neck
							{
								OFFSET -0.418800 17.814194 8.416900
								CHANNELS 3 Xrotation Yrotation Zrotation
								JOINT Head
								{
									OFFSET 0.000000 7.031097 3.806800
									CHANNELS 3 Xrotation Yrotation Zrotation
									JOINT HeadTop_End
									{
										OFFSET 0.000000 24.646606 12.978600
										CHANNELS 3 Xrotation Yrotation Zrotation
										End Site
										{
											OFFSET 0 0 0
										}
									}
								}
							}
						}
						JOINT LeftShoulder_virtual
						{
							OFFSET 0.000000 0.000000 0.000000
							CHANNELS 3 Xrotation Yrotation Zrotation
							JOINT LeftShoulder
							{
								OFFSET 8.476499 7.247704 -3.868750
								CHANNELS 3 Xrotation Yrotation Zrotation
								JOINT LeftShoulder_split
								{
									OFFSET 8.476499 7.247704 -3.868750
									CHANNELS 3 Xrotation Yrotation Zrotation
									JOINT LeftArm
									{
										OFFSET 9.308998 -2.777710 0.208600
										CHANNELS 3 Xrotation Yrotation Zrotation
										JOINT LeftForeArm
										{
											OFFSET 29.972298 0.000000 0.000000
											CHANNELS 3 Xrotation Yrotation Zrotation
											JOINT LeftHand
											{
												OFFSET 26.026505 0.000000 0.000000
												CHANNELS 3 Xrotation Yrotation Zrotation
												End Site
												{
													OFFSET 0 0 0
												}
											}
										}
									}
								}
							}
						}
						JOINT RightShoulder_virtual
						{
							OFFSET 0.000000 0.000000 0.000000
							CHANNELS 3 Xrotation Yrotation Zrotation
							JOINT RightShoulder
							{
								OFFSET -7.570500 7.247704 -3.868750
								CHANNELS 3 Xrotation Yrotation Zrotation
								JOINT RightShoulder_split
								{
									OFFSET -7.570500 7.247704 -3.868750
									CHANNELS 3 Xrotation Yrotation Zrotation
									JOINT RightArm
									{
										OFFSET -9.308998 -2.777710 0.208500
										CHANNELS 3 Xrotation Yrotation Zrotation
										JOINT RightForeArm
										{
											OFFSET -29.972300 0.000000 0.000000
											CHANNELS 3 Xrotation Yrotation Zrotation
											JOINT RightHand
											{
												OFFSET -26.026505 0.000000 0.000000
												CHANNELS 3 Xrotation Yrotation Zrotation
												End Site
												{
													OFFSET 0 0 0
												}
											}
										}
									}
								}
							}
						}
					}
				}
			}
		}
	}
}
MOTION
Frames: 11
Frame Time: 0.03333333
-0.295925 90.255936 -2.225258 0.000000 0.000000 0.000000 0.113902 -30.979464 -1.013598 -19.912474 15.799747 19.011748 27.773520 6.984784 -4.505751 -8.414223 -6.013818 -2.711767 1.278190 -0.494023 -2.081431 0.000000 0.000000 0.000000 0.066961 -31.044227 -0.773712 -13.579939 -0.334249 -7.674065 18.305050 4.285134 1.473040 -9.456594 1.109978 5.388280 -2.839246 0.408083 -0.532411 0.000000 0.000000 0.000000 0.809118 -28.888709 -1.219859 6.874987 -1.342414 0.180998 1.835235 -1.004707 2.638088 0.217141 -3.447051 0.336880 0.000000 0.000000 0.000000 2.406171 -0.338558 2.502232 -6.165666 18.174160 -8.569794 -1.766712 21.820054 4.152107 0.000000 0.000000 0.000000 2.011512 0.020700 2.762495 0.848716 -10.312239 -3.605352 0.391578 -3.745494 -1.910865 -61.397356 0.622444 -34.766411 23.021190 -63.762302 24.218056 0.000000 0.000000 0.000000 1.771930 -0.616877 2.124050 3.662839 7.245752 7.054649 -1.576250 -3.975884 2.323071 -1.390653 -0.774810 61.383456 16.239275 14.667882 -7.880702 0.000000 0.000000 0.000000 
-0.239147 90.122368 -2.453842 0.000000 0.000000 0.000000 -0.042765 -30.291244 -0.989122 -21.105057 16.387495 19.018069 28.110520 6.863861 -4.161405 -8.160138 -6.440947 -3.238262 0.897287 -0.514666 -1.862927 0.000000 0.000000 0.000000 0.166436 -30.339434 -0.683126 -13.183667 -0.465597 -7.809483 18.396143 3.896464 1.208655 -9.669257 0.468154 7.030380 -4.932024 0.379031 -0.684973 0.000000 0.000000 0.000000 0.589627 -27.292439 -0.828562 6.564716 -0.973421 0.145064 2.091917 -0.771325 2.562443 -0.970333 -1.145703 0.412851 0.000000 0.000000 0.000000 2.126432 -0.226807 2.322191 -6.075972 17.153747 -8.104641 -2.699182 21.144831 4.670517 0.000000 0.000000 0.000000 2.169781 0.223050 2.623036 0.411032 -8.988899 -4.099467 -0.786637 -1.956519 -2.585986 -60.255847 3.512394 -33.993766 24.037266 -64.012150 24.899644 0.000000 0.000000 0.000000 1.734991 -0.380544 1.999953 3.646076 7.504518 7.618002 -1.621208 -4.049013 1.503432 -0.266491 -0.475502 60.618434 16.714125 15.405297 -8.073286 0.000000 0.000000 0.000000 
-0.275872 89.693085 -2.336395 0.000000 0.000000 0.000000 -0.022569 -27.262207 -0.683711 -23.288891 15.493714 18.475293 29.102832 6.424833 -3.810142 -7.158089 -7.426857 -3.502036 0.309296 -0.577306 -1.519157 0.000000 0.000000 0.000000 0.378980 -26.957116 -0.424319 -11.088395 -1.650843 -7.835227 18.724993 2.184450 0.763352 -12.139344 -1.519438 7.464557 -4.285454 0.284004 -0.462261 0.000000 0.000000 0.000000 0.750472 -23.898537 -0.249746 5.935252 -0.217225 0.242473 2.478155 -0.193974 2.410415 -1.665550 0.437089 0.289921 0.000000 0.000000 0.000000 2.045818 0.210861 2.122912 -6.692187 14.655667 -7.309032 -3.417375 18.281037 4.559896 0.000000 0.000000 0.000000 2.399683 0.673523 2.336391 -0.120926 -7.011478 -4.766699 -1.391962 -1.072494 -2.300422 -61.295723 8.652162 -32.341526 25.299384 -66.886998 25.545317 0.000000 0.000000 0.000000 1.744183 0.190090 1.845793 3.694006 8.124777 8.508193 -1.747644 -3.751425 0.673207 1.419760 -1.628220 60.135847 17.856225 17.268986 -8.813398 0.000000 0.000000 0.000000 
-0.340326 89.149612 -1.782970 0.000000 0.000000 0.000000 0.192758 -22.071466 -0.222358 -26.015251 13.237083 17.270483 30.065622 5.889746 -3.488467 -5.162053 -8.767474 -3.345665 -0.058078 -0.659206 -1.195488 0.000000 0.000000 0.000000 0.655079 -21.384926 -0.065763 -7.814664 -3.737739 -7.798666 18.860697 -0.456098 0.275948 -15.907803 -4.183862 6.981952 -1.913027 0.257046 -0.020217 0.000000 0.000000 0.000000 1.233772 -19.083687 0.299926 4.956550 0.920216 0.423653 2.932421 0.714564 2.112923 -1.446301 1.158132 0.053958 0.000000 0.000000 0.000000 2.165091 1.000480 1.837405 -7.841897 10.781725 -6.112955 -3.830448 13.477782 3.808951 0.000000 0.000000 0.000000 2.677425 1.411991 1.933762 -0.675468 -4.623202 -5.386530 -0.925636 -1.669606 -0.781595 -64.255148 14.053895 -30.066752 26.720830 -71.616207 26.054426 0.000000 0.000000 0.000000 1.840535 1.090138 1.588792 3.756125 8.935367 9.704277 -1.999502 -3.356050 0.042901 3.188416 -3.871942 60.000849 19.432477 19.509797 -9.941246 0.000000 0.000000 0.000000 
-0.377335 88.710182 -0.937305 0.000000 0.000000 0.000000 0.476570 -15.333536 0.220293 -28.822288 9.618991 15.328121 30.437293 5.474508 -3.196508 -2.235883 -10.153939 -2.728603 0.022626 -0.743776 -0.928226 0.000000 0.000000 0.000000 0.999499 -14.347347 0.309229 -3.875936 -6.315655 -7.788305 18.833174 -3.043327 0.018389 -19.293413 -6.459212 6.889123 -0.663825 0.370922 0.485897 0.000000 0.000000 0.000000 1.783910 -13.237896 0.672750 3.647981 2.412516 0.635435 3.343654 1.924304 1.642018 -0.410746 1.314866 0.140816 0.000000 0.000000 0.000000 2.483640 2.126233 1.437846 -9.301854 5.648951 -4.335475 -3.866643 7.285282 2.452285 0.000000 0.000000 0.000000 2.933438 2.464455 1.443228 -1.162910 -2.047782 -5.908834 0.039285 -2.926304 1.206930 -68.185806 18.502387 -27.556316 27.116780 -77.040033 25.366897 0.000000 0.000000 0.000000 2.040447 2.279515 1.205418 3.756246 9.751898 11.134090 -2.692735 -2.956313 -0.235953 4.738969 -6.470268 59.982380 21.137561 21.331560 -11.283657 0.000000 0.000000 0.000000 
-0.409693 88.341812 -0.017338 0.000000 0.000000 0.000000 0.776512 -7.806482 0.478088 -31.218114 4.936533 12.771305 29.635422 5.207607 -2.918272 1.112921 -11.386597 -1.703641 0.492820 -0.809311 -0.589035 0.000000 0.000000 0.000000 1.240689 -6.911687 0.528008 0.172446 -8.895952 -7.810089 18.849370 -4.907400 0.071584 -20.681985 -7.758904 8.235553 -2.646977 0.578461 0.904177 0.000000 0.000000 0.000000 2.149240 -6.816026 0.743166 2.095847 4.172757 0.903723 3.637233 3.359896 1.053801 0.755874 1.483316 0.206826 0.000000 0.000000 0.000000 2.930876 3.512148 0.938959 -10.724439 -0.537119 -1.871313 -3.432166 0.260054 0.574568 0.000000 0.000000 0.000000 3.122727 3.799633 0.921991 -1.519632 0.474051 -6.264909 1.276468 -4.389232 3.120711 -71.799242 21.225559 -25.316308 23.713174 -82.236434 20.882112 0.000000 0.000000 0.000000 2.337019 3.673333 0.706498 3.615060 10.414388 12.729725 -3.844670 -2.447619 -0.480005 6.064472 -8.666983 59.673730 22.741397 22.430821 -12.680018 0.000000 0.000000 0.000000 
-0.329649 88.041962 1.051849 0.000000 0.000000 0.000000 0.929582 0.123904 0.412096 -32.946941 -0.323786 9.839675 27.567830 4.837528 -2.707698 4.381365 -12.579354 -0.726885 0.936113 -0.846441 -0.102025 0.000000 0.000000 0.000000 1.267454 0.527466 0.493039 4.074723 -11.002061 -7.742539 19.013377 -5.971188 0.373699 -19.571356 -8.106176 11.076810 -7.765725 0.714266 1.240116 0.000000 0.000000 0.000000 2.093679 0.194005 0.590091 0.407037 6.032353 1.293013 3.775549 4.915026 0.460031 1.495546 1.415413 0.261261 0.000000 0.000000 0.000000 3.374102 5.011836 0.379411 -11.829688 -7.407145 1.189555 -2.677961 -7.117787 -1.645956 0.000000 0.000000 0.000000 3.240648 5.317761 0.442880 -1.707296 2.723532 -6.350970 2.633934 -5.892814 4.634795 -74.229806 22.516267 -23.626750 5.807554 -85.893536 2.078213 0.000000 0.000000 0.000000 2.759278 5.175841 0.143357 3.350926 10.796771 14.187133 -5.201268 -1.912394 -0.783988 7.401717 -9.742565 58.775103 24.252935 22.764525 -14.137658 0.000000 0.000000 0.000000 
-0.144347 87.762932 1.865864 0.000000 0.000000 0.000000 0.689887 7.813502 0.058435 -33.995907 -5.860615 7.009361 24.793370 4.022385 -2.643122 7.606669 -13.825976 -0.478275 0.960950 -0.819135 0.470330 0.000000 0.000000 0.000000 0.899369 7.942696 0.193943 7.613680 -12.400455 -7.514317 19.647693 -6.484388 0.963340 -16.599918 -7.583954 14.316424 -14.626147 0.631667 1.613181 0.000000 0.000000 0.000000 1.518383 7.570622 0.292526 -1.309892 7.818734 1.884170 3.824513 6.438836 -0.025554 1.714497 1.435835 0.532470 0.000000 0.000000 0.000000 3.738464 6.448107 -0.144985 -12.485956 -14.417068 4.632495 -1.884298 -14.149518 -4.105920 0.000000 0.000000 0.000000 3.325667 6.820336 0.034565 -1.700642 4.641105 -6.164570 3.519512 -7.028512 5.307959 -75.504640 23.079699 -22.402877 -28.375505 -86.236876 -32.619658 0.000000 0.000000 0.000000 3.197937 6.628472 -0.404673 3.020504 10.734908 15.191968 -6.375615 -1.162142 -1.191123 9.044462 -9.440010 56.970946 25.748432 22.685930 -15.725563 0.000000 0.000000 0.000000 
0.182107 87.575508 2.397087 0.000000 0.000000 0.000000 -0.062322 15.103819 -0.412268 -34.569852 -11.190304 4.570156 22.097694 2.636416 -2.782534 10.888600 -15.176993 -1.353573 0.561158 -0.647744 1.026478 0.000000 0.000000 0.000000 0.191090 15.384682 -0.344688 10.647453 -13.043932 -7.134714 20.726868 -6.872079 1.714511 -12.704570 -6.566270 16.608556 -22.183102 0.308340 1.993994 0.000000 0.000000 0.000000 0.546109 14.863948 -0.116501 -2.899568 9.296935 2.732601 3.817827 7.735071 -0.335162 1.707338 1.627610 0.616818 0.000000 0.000000 0.000000 3.971714 7.643514 -0.556113 -12.683443 -20.921909 8.115678 -1.423690 -20.108914 -6.772206 0.000000 0.000000 0.000000 3.375187 8.106415 -0.282883 -1.569401 6.194757 -5.668311 3.582724 -7.837417 4.806682 -76.558183 23.096775 -21.151486 -32.474814 -84.147931 -36.728140 0.000000 0.000000 0.000000 3.608706 7.854870 -0.888981 2.726200 10.238828 15.388626 -6.939754 -0.250067 -1.517928 11.018325 -8.113086 54.182825 27.337890 22.622464 -17.604188 0.000000 0.000000 0.000000 
0.614444 87.610870 3.016048 0.000000 0.000000 0.000000 -1.293275 21.950041 -0.806213 -34.483979 -15.697091 2.605860 19.691784 1.193734 -3.117112 13.527467 -16.381256 -2.726036 0.042568 -0.331907 1.399323 0.000000 0.000000 0.000000 -0.683699 22.816361 -0.896046 13.263524 -13.086136 -6.632207 21.764719 -7.168619 2.550560 -8.528038 -5.374517 17.320793 -29.342103 -0.144613 2.297034 0.000000 0.000000 0.000000 -0.747787 21.872274 -0.535913 -4.207783 10.255846 3.816887 3.814365 8.711787 -0.484958 1.712086 2.085531 0.737606 0.000000 0.000000 0.000000 4.073632 8.515204 -0.812014 -12.393790 -26.423787 11.345101 -1.590877 -24.554988 -9.705392 0.000000 0.000000 0.000000 3.330797 9.056330 -0.479550 -1.399115 7.541622 -4.857219 2.778760 -8.152990 3.245720 -78.806122 22.605539 -19.583274 -21.844296 -80.845923 -25.833650 0.000000 0.000000 0.000000 3.938237 8.783414 -1.246569 2.531488 9.356537 14.490347 -6.991705 0.662664 -1.518047 12.803409 -6.310451 50.224468 29.205954 23.145623 -20.019054 0.000000 0.000000 0.000000 
1.059810 87.868820 3.610100 0.000000 0.000000 0.000000 -2.858795 27.973335 -0.918451 -33.534330 -18.947563 1.228611 17.322794 0.121241 -3.504575 15.036521 -17.285334 -3.824141 -0.568985 0.106901 1.585465 0.000000 0.000000 0.000000 -1.765459 29.699712 -1.225064 15.405510 -12.635000 -6.149780 22.426761 -6.927069 3.286760 -4.587530 -3.994615 16.402756 -34.615863 -0.520524 2.535436 0.000000 0.000000 0.000000 -2.336015 28.083364 -0.828021 -5.163294 10.606620 5.028938 3.829632 9.317851 -0.496279 2.074924 2.339916 0.589248 0.000000 0.000000 0.000000 4.129002 9.058115 -0.895539 -11.396155 -30.459673 14.258456 -2.337993 -27.243850 -12.652049 0.000000 0.000000 0.000000 3.116407 9.686638 -0.524607 -1.324659 9.119318 -3.858424 1.266048 -7.809076 0.869200 -82.520973 21.368416 -18.169452 -13.023766 -77.715436 -16.753472 0.000000 0.000000 0.000000 4.102652 9.352463 -1.472583 2.472305 8.124438 12.560007 -6.766570 1.519382 -1.252462 13.774836 -4.496238 44.999711 31.382226 24.546558 -23.075289 0.000000 0.000000 0.000000 
